<svg xmlns="http://www.w3.org/2000/svg" xmlns:xlink="http://www.w3.org/1999/xlink" viewBox="0,0,256,256" width="64px" height="64px" fill-rule="nonzero"><g fill-opacity="0" fill="#dddddd" fill-rule="nonzero" stroke="none" stroke-width="1" stroke-linecap="butt" stroke-linejoin="miter" stroke-miterlimit="10" stroke-dasharray="" stroke-dashoffset="0" font-family="none" font-weight="none" font-size="none" text-anchor="none" style="mix-blend-mode: normal"><path d="M0,256v-256h256v256z" id="bgRectangle"></path></g><g fill="#ffffff" fill-rule="nonzero" stroke="none" stroke-width="1" stroke-linecap="butt" stroke-linejoin="miter" stroke-miterlimit="10" stroke-dasharray="" stroke-dashoffset="0" font-family="none" font-weight="none" font-size="none" text-anchor="none" style="mix-blend-mode: normal"><g transform="scale(4,4)"><path d="M14,8c-3.314,0 -6,2.686 -6,6v36c0,3.314 2.686,6 6,6h36c3.314,0 6,-2.686 6,-6v-36c0,-3.314 -2.686,-6 -6,-6zM14,11h36c1.654,0 3,1.346 3,3v36c0,1.654 -1.346,3 -3,3h-36c-1.654,0 -3,-1.346 -3,-3v-36c0,-1.654 1.346,-3 3,-3zM41,16c-3.31371,0 -6,2.68629 -6,6c0,3.31371 2.68629,6 6,6c3.31371,0 6,-2.68629 6,-6c0,-3.31371 -2.68629,-6 -6,-6zM29,17c-2.20914,0 -4,1.79086 -4,4c0,2.20914 1.79086,4 4,4c2.20914,0 4,-1.79086 4,-4c0,-2.20914 -1.79086,-4 -4,-4zM19.5,18c-1.38071,0 -2.5,1.11929 -2.5,2.5c0,1.38071 1.11929,2.5 2.5,2.5c1.38071,0 2.5,-1.11929 2.5,-2.5c0,-1.38071 -1.11929,-2.5 -2.5,-2.5zM20,25c-2.761,0 -5,2.239 -5,5v7h8v6h10v5h16v-9c0,-4.418 -3.582,-8 -8,-8c-1.983,0 -3.79341,0.72492 -5.19141,1.91992c-0.69,-2.823 -3.22867,-4.91992 -6.26367,-4.91992c-1.774,0 -3.38155,0.70752 -4.56055,1.85352c-0.079,-2.692 -2.27238,-4.85352 -4.98437,-4.85352z"></path></g></g></svg>